<svg xmlns="http://www.w3.org/2000/svg" xmlns:xlink="http://www.w3.org/1999/xlink" width="1366" height="783" viewBox="0 0 1366 783"><defs><style>.a{fill:url(#a);}.b{clip-path:url(#b);}.c{fill:#f7f7f7;}</style><linearGradient id="a" x1="0.006" y1="0.545" x2="1" y2="0.552" gradientUnits="objectBoundingBox"><stop offset="0" stop-color="#fff"/><stop offset="1" stop-color="#eee"/></linearGradient><clipPath id="b"><rect class="a" width="1366" height="783" transform="translate(0 680)"/></clipPath></defs><g class="b" transform="translate(0 -680)"><rect class="a" width="1366" height="783" transform="translate(0 680)"/><g transform="translate(-561.829 774.377)"><g transform="translate(251.502 442.722)"><path class="c" d="M251.5,580.029a8.263,8.263,0,0,1,8.263-8.263h9.919c12.121,0,17.25-4.93,17.25-19.274V469.123c0-46.168,20.98-62.3,81.588-62.3h22.973a8.262,8.262,0,0,1,8.263,8.263v40.6a8.266,8.266,0,0,1-7.848,8.249c-25.789,1.311-33.178,9.708-33.178,28.948v54.684c0,23.762-5.561,38.29-20.033,46.8a8.251,8.251,0,0,0-.065,14.193c14.52,8.689,20.1,23.225,20.1,47.023v54.234c0,19.241,7.389,27.638,33.178,28.95a8.266,8.266,0,0,1,7.848,8.248v41.045a8.264,8.264,0,0,1-8.263,8.264H368.522c-60.608,0-81.588-16.586-81.588-62.752v-82.92c0-14.344-5.129-19.722-17.25-19.722h-9.919a8.262,8.262,0,0,1-8.263-8.263Z" transform="translate(-251.502 -406.82)"/><path class="c" d="M417.454,599.933c22.844,0,39.161,15.241,39.161,37.2,0,22.41-16.317,37.65-39.161,37.65s-38.7-15.24-38.7-37.65C378.758,615.174,394.609,599.933,417.454,599.933Z" transform="translate(-206.265 -338.172)"/><path class="c" d="M501.032,599.933c22.844,0,39.161,15.241,39.161,37.2,0,22.41-16.317,37.65-39.161,37.65s-38.7-15.24-38.7-37.65C462.336,615.174,478.187,599.933,501.032,599.933Z" transform="translate(-176.555 -338.172)"/><path class="c" d="M584.61,599.933c22.844,0,39.162,15.241,39.162,37.2,0,22.41-16.318,37.65-39.162,37.65s-38.7-15.24-38.7-37.65C545.914,615.174,561.765,599.933,584.61,599.933Z" transform="translate(-146.844 -338.172)"/><path class="c" d="M680.492,709.817V655.583c0-23.756,5.307-38.283,19.822-46.8a8.252,8.252,0,0,0,.065-14.208c-14.566-8.69-19.888-23.224-19.888-47.015V492.878c0-19.215-7.757-27.615-33.181-28.943a8.268,8.268,0,0,1-7.844-8.248v-40.6a8.263,8.263,0,0,1,8.263-8.263h22.506c60.608,0,81.588,16.136,81.588,62.3v83.369c0,14.344,5.129,19.274,17.716,19.274h9.453a8.262,8.262,0,0,1,8.263,8.263v42.639a8.262,8.262,0,0,1-8.263,8.263H769.54c-12.587,0-17.716,5.379-17.716,19.722v82.92c0,46.166-20.98,62.752-81.588,62.752H647.73a8.264,8.264,0,0,1-8.263-8.264V747.01a8.268,8.268,0,0,1,7.844-8.248C672.735,737.435,680.492,729.034,680.492,709.817Z" transform="translate(-113.588 -406.82)"/></g><g transform="translate(462.216 305.824)"><path class="c" d="M596.978,614.9a11.249,11.249,0,0,0-16.839-11.473l-6.666,3.954c-2.154,1.278-16.171,11.355-18.49,10.966-6.573-1.1-19.506-35.687-21.837-41.509a210.411,210.411,0,0,1-14.639-67.492c-.5-9.774-12.526-14.184-19.321-7.139-34.961,36.241-42.9,87.656-35.973,137.442,1.547,11.12-12.264,17.442-19.633,8.972-37.978-43.655-47.656-104.026-23.206-159.494,14.819-33.62,33.071-65.94,49.878-98.595,7.772-15.1,15.425-30.29,19.547-46.867,2.242-9.017,2.3-17.785,2.243-26.535a11.251,11.251,0,0,1,18.172-8.914c33.3,25.771,61.119,53.966,73.651,97,7.493,25.731,9.707,53.453,8.152,80.926-.747,13.205,17.928,16.655,21.944,4.052a184.932,184.932,0,0,0,7.006-30.833c1.594-11.507,17.665-13.164,21.675-2.262,2.026,5.51,3.733,10.887,5.278,15.5,6.6,19.7,11.995,40.991,11.195,61.913-1.579,41.342-20.317,79.1-46.272,110.606-7.391,8.971-21.9,2.011-19.653-9.392C594.6,628.56,595.949,621.327,596.978,614.9Z" transform="translate(-406.956 -305.824)"/></g></g></g></svg>