<svg xmlns="http://www.w3.org/2000/svg" width="168" height="38.039" viewBox="0 0 168 38.039"><defs><style>.a{fill:#ed1f2c;}.b{fill:#fff;}</style></defs><g transform="translate(-206.643 -406.024)"><g transform="translate(206.643 406.024)"><g transform="translate(0 11.628)"><g transform="translate(13.083 17.151)"><path class="a" d="M258.364,512.42a2.8,2.8,0,1,1-2.9,2.786A2.715,2.715,0,0,1,258.364,512.42Z" transform="translate(-255.467 -512.42)"/><path class="a" d="M290.02,512.42a2.8,2.8,0,1,1-2.9,2.786A2.715,2.715,0,0,1,290.02,512.42Z" transform="translate(-278.639 -512.42)"/><path class="a" d="M321.676,512.42a2.8,2.8,0,1,1-2.9,2.786A2.715,2.715,0,0,1,321.676,512.42Z" transform="translate(-301.813 -512.42)"/></g><path class="a" d="M206.643,460.16a.56.56,0,0,1,.56-.56h.673c.822,0,1.17-.334,1.17-1.307V452.64c0-3.13,1.423-4.225,5.532-4.225h1.558a.56.56,0,0,1,.56.56v2.753a.56.56,0,0,1-.532.559c-1.749.089-2.25.658-2.25,1.963v3.708c0,1.611-.377,2.6-1.358,3.174a.56.56,0,0,0,0,.963c.985.589,1.363,1.575,1.363,3.188v3.678c0,1.3.5,1.874,2.25,1.963a.561.561,0,0,1,.532.559v2.783a.56.56,0,0,1-.56.56h-1.558c-4.11,0-5.532-1.125-5.532-4.255v-5.623c0-.973-.348-1.337-1.17-1.337H207.2a.56.56,0,0,1-.56-.56Z" transform="translate(-206.643 -448.415)"/><path class="a" d="M354.742,468.961v-3.678c0-1.611.36-2.6,1.344-3.173a.56.56,0,0,0,0-.964c-.988-.589-1.349-1.575-1.349-3.188V454.25c0-1.3-.526-1.873-2.25-1.963a.561.561,0,0,1-.532-.559v-2.753a.56.56,0,0,1,.56-.56h1.526c4.11,0,5.532,1.094,5.532,4.225v5.653c0,.973.348,1.307,1.2,1.307h.641a.56.56,0,0,1,.56.56v2.891a.56.56,0,0,1-.56.56h-.641c-.853,0-1.2.365-1.2,1.337v5.623c0,3.13-1.423,4.255-5.532,4.255H352.52a.56.56,0,0,1-.56-.56v-2.784a.561.561,0,0,1,.532-.559C354.216,470.833,354.742,470.264,354.742,468.961Z" transform="translate(-313.019 -448.415)"/></g><g transform="translate(15.037 0)"><path class="a" d="M276.987,428.167a.842.842,0,0,0-1.261-.859l-.5.3a7.627,7.627,0,0,1-1.385.821c-.492-.082-1.46-2.672-1.635-3.108a15.76,15.76,0,0,1-1.1-5.054.842.842,0,0,0-1.447-.535c-2.618,2.714-3.212,6.563-2.693,10.291a.842.842,0,0,1-1.47.672,11.1,11.1,0,0,1-1.738-11.943c1.11-2.517,2.476-4.938,3.735-7.383a16.406,16.406,0,0,0,1.464-3.509,7.845,7.845,0,0,0,.168-1.987.842.842,0,0,1,1.361-.667c2.493,1.93,4.576,4.041,5.515,7.263a18.123,18.123,0,0,1,.611,6.06.842.842,0,0,0,1.643.3,13.863,13.863,0,0,0,.524-2.309.842.842,0,0,1,1.623-.169c.152.412.28.815.4,1.161a13.274,13.274,0,0,1,.838,4.636,14.017,14.017,0,0,1-3.465,8.282.842.842,0,0,1-1.471-.7C276.81,429.19,276.91,428.648,276.987,428.167Z" transform="translate(-262.759 -405.024)"/></g></g><g transform="translate(270.897 417.523)"><path class="b" d="M669.395,465.11c0-1.49-.045-2.982.009-4.47.163-4.534,2.1-6.927,6.507-7.9a18.97,18.97,0,0,1,9,.117c3.425.892,5.517,3.12,5.757,6.6a84.021,84.021,0,0,1,.007,11.233c-.224,3.425-2.3,5.629-5.642,6.52a18.988,18.988,0,0,1-10.048-.073c-3.441-.943-5.3-3.285-5.542-6.933-.111-1.688-.019-3.389-.019-5.084Zm16.649.06c0-1.343.026-2.686,0-4.029a4.954,4.954,0,0,0-4.556-4.85,14.506,14.506,0,0,0-3.512.135c-2.817.464-3.74,1.68-3.769,4.529-.03,2.875-.048,5.751.013,8.624.051,2.4.907,3.537,3.26,3.964a16.893,16.893,0,0,0,4.882.183c2.645-.3,3.612-1.554,3.673-4.243C686.071,468.046,686.044,466.608,686.044,465.17Z" transform="translate(-609.632 -452.252)"/><path class="b" d="M785.3,454.831l-.749,2a.708.708,0,0,1-.77.452c-2.42-.368-4.72-.788-7.04-.986a2.819,2.819,0,0,0-3.117,1.775,2.773,2.773,0,0,0,1.7,3.642c1.767.672,3.608,1.15,5.418,1.709A7.264,7.264,0,0,1,785.214,474a6.17,6.17,0,0,1-4.3,3.437c-4.058.907-7.872.084-11.738-1.534a.712.712,0,0,1-.372-.953l.887-1.933a.709.709,0,0,1,.765-.4c2.626.452,5.089.979,7.579,1.211,2.146.2,3.189-.7,3.5-2.425.363-2.032-.235-3.141-2.337-3.894-1.829-.655-3.727-1.118-5.582-1.705-3.389-1.073-4.886-3.179-4.859-6.774.024-3.2,1.611-5.264,4.945-6.194a16.078,16.078,0,0,1,11.224,1.1A.712.712,0,0,1,785.3,454.831Z" transform="translate(-682.368 -452.267)"/><path class="b" d="M455.686,457.334h-7.957a.71.71,0,0,1-.709-.71V454.5a.709.709,0,0,1,.709-.71h14.026a.712.712,0,0,1,.707.646,5.755,5.755,0,0,1-.69,3.623c-2.883,4.98-5.668,10.018-8.488,15.035-.189.337-.375.677-.579,1.053a.71.71,0,0,0,.624,1.048H461.9a.709.709,0,0,1,.71.709v1.947a.71.71,0,0,1-.71.71H447.161a.713.713,0,0,1-.708-.65,5.584,5.584,0,0,1,.753-3.5c2.983-5.1,5.855-10.266,8.766-15.409.111-.2.218-.392.339-.618A.71.71,0,0,0,455.686,457.334Z" transform="translate(-446.423 -453.376)"/><path class="b" d="M601.579,478.594h-3.391a.71.71,0,0,1-.71-.71V454.556a.71.71,0,0,1,.71-.71h13.257a.71.71,0,0,1,.71.71v2.085a.71.71,0,0,1-.71.71h-8.368a.71.71,0,0,0-.71.71v5.72a.71.71,0,0,0,.71.71h7.69a.71.71,0,0,1,.71.71v2.223a.709.709,0,0,1-.71.71H603a.71.71,0,0,0-.71.71v9.044A.71.71,0,0,1,601.579,478.594Z" transform="translate(-557 -453.419)"/><path class="b" d="M523.355,477.9v-2.092a.71.71,0,0,1,.71-.71H527a.709.709,0,0,0,.71-.71V458.176a.709.709,0,0,0-.71-.709h-2.869a.71.71,0,0,1-.709-.71V454.61a.709.709,0,0,1,.709-.71H536.3a.71.71,0,0,1,.71.71v2.074a.71.71,0,0,1-.71.71h-2.845a.71.71,0,0,0-.71.71V474.31a.71.71,0,0,0,.71.71h2.885a.71.71,0,0,1,.71.71V477.9a.709.709,0,0,1-.71.709H524.065A.71.71,0,0,1,523.355,477.9Z" transform="translate(-502.739 -453.458)"/></g></g></svg>